<svg xmlns="http://www.w3.org/2000/svg" viewBox="0 0 240.16 76.67"><defs><style>.cls-1{fill:#20c997;}.cls-2{fill:#293330;}.cls-3{font-size:14px;font-family:Rockwell-Regular, Rockwell;letter-spacing:0.5em;}</style></defs><g id="Layer_2" data-name="Layer 2"><g id="Layer_1-2" data-name="Layer 1"><rect class="cls-1" x="0.16" y="58.23" width="235" height="17"/><text/><text/><text/><g id="g10"><g id="g12"><path id="path14" class="cls-2" d="M66.11,13.43V0h53.63V22H104.67V13.26H90.13V23.5h12.48V35.9H90.13V47h14.8V37.19H120V60.26H66.11V46.83h6.37V13.43H66.11"/><path id="path16" class="cls-2" d="M123.18,13.43V0h53.63V22H161.75V13.26H147.2V23.5h12.48V35.9H147.2V47H162V37.19h15.07V60.26H123.18V46.83h6.37V13.43h-6.37"/><path id="path18" class="cls-2" d="M211.67,26.34c2.5,0,3.45-.17,4-.69.78-.86,1-2.15,1-5.85s-.17-5-1-5.85c-.51-.52-1.46-.69-4-.69h-7.4V26.34Zm19.46,9.47c-2.33,2.41-5.94,3.27-11.28,3.27H204.27v7.75h6.8V60.26H180.25V46.83h6.37V13.43h-6.37V0h39.6c5.34,0,9,.86,11.28,3.27C233.88,6.11,235,9.12,235,19.54S233.88,33,231.13,35.81"/><path id="path20" class="cls-2" d="M62.92,13.43V0H32.54V13.26h4.73L27.89,24.19H24V13.26h5.33V0H22.14V5h-3.9V0H11.11V5H7.21V0H0V13.43H6.37v33.4H0V60.26H29.35V47H24V36.07h3.87L37.27,47H32.54V60.26H62.92V46.83H58.19l-14.3-16.7,14.3-16.7h4.73"/></g></g><text class="cls-3" transform="translate(0.24 72.57) scale(0.97 1)">GRANTS EXPLORER</text></g></g></svg>