<svg width="120px" height="80px" viewBox="0 0 250 126" fill="none" xmlns="http://www.w3.org/2000/svg"><path d="M63 0C28.2176 0 0 28.2176 0 63C0 97.7824 28.2176 126 63 126C97.7824 126 126 97.7824 126 63C125.947 28.2176 97.7294 0 63 0ZM89.4176 48.9176H85.4471L73.4294 62.9471L85.4471 76.9765H89.4176V88.2529H63.9V77.0824H67.8706L59.9824 67.8706H56.7529V77.0824H61.2529V88.2529H36.5294V76.9765H41.8765V63V48.9176H36.5294V37.6412H42.6176V41.8235H45.9V37.6412H51.8824V41.8235H55.1647V37.6412H61.2V48.7588H56.7V57.9706H59.9294L67.8176 48.7588H63.8471V37.6412H89.3647V48.9176H89.4176Z" fill="#0A0806"></path></svg>
